<svg width="25" height="25" viewBox="0 0 25 25" fill="none" xmlns="http://www.w3.org/2000/svg">
<g clip-path="url(#clip0)">
<path d="M24.1683 5.72718C23.6692 5.20437 22.98 4.89543 22.1958 4.89543H18.251V4.8479C18.251 4.2538 18.0133 3.68345 17.6093 3.30323C17.2053 2.89923 16.6587 2.66159 16.0646 2.66159H8.93536C8.31749 2.66159 7.77091 2.89923 7.36692 3.30323C6.96293 3.70722 6.72529 4.2538 6.72529 4.8479V4.89543H2.80418C2.01996 4.89543 1.3308 5.20437 0.831749 5.72718C0.3327 6.22623 0 6.93916 0 7.69961V19.5342C0 20.3184 0.308935 21.0076 0.831749 21.5066C1.3308 22.0057 2.04373 22.3384 2.80418 22.3384H22.1958C22.98 22.3384 23.6692 22.0295 24.1683 21.5066C24.6673 21.0076 25 20.2947 25 19.5342V7.69961C25 6.91539 24.6911 6.22623 24.1683 5.72718ZM23.7643 19.5342H23.7405C23.7405 19.962 23.5741 20.3422 23.289 20.6274C23.0038 20.9125 22.6236 21.0789 22.1958 21.0789H2.80418C2.37643 21.0789 1.9962 20.9125 1.71103 20.6274C1.42586 20.3422 1.25951 19.962 1.25951 19.5342V7.69961C1.25951 7.27186 1.42586 6.89163 1.71103 6.60646C1.9962 6.32129 2.37643 6.15494 2.80418 6.15494H7.39068C7.74715 6.15494 8.03232 5.86977 8.03232 5.5133V4.82414C8.03232 4.56273 8.12738 4.32509 8.29373 4.15874C8.46008 3.99239 8.69772 3.89733 8.95913 3.89733H16.0646C16.326 3.89733 16.5637 3.99239 16.73 4.15874C16.8964 4.32509 16.9914 4.56273 16.9914 4.82414V5.5133C16.9914 5.86977 17.2766 6.15494 17.6331 6.15494H22.2196C22.6473 6.15494 23.0276 6.32129 23.3127 6.60646C23.5979 6.89163 23.7643 7.27186 23.7643 7.69961V19.5342Z" fill="white"/>
<path d="M12.4998 7.77091C10.8838 7.77091 9.41046 8.43631 8.36484 9.48194C7.29544 10.5513 6.65381 12.0009 6.65381 13.6169C6.65381 15.2329 7.31921 16.7063 8.36484 17.7519C9.43423 18.8213 10.8838 19.4629 12.4998 19.4629C14.1158 19.4629 15.5892 18.7975 16.6348 17.7519C17.7042 16.6825 18.3458 15.2329 18.3458 13.6169C18.3458 12.0009 17.6804 10.5276 16.6348 9.48194C15.5892 8.43631 14.1158 7.77091 12.4998 7.77091ZM15.7318 16.8726C14.9 17.6806 13.7593 18.2034 12.4998 18.2034C11.2403 18.2034 10.0996 17.6806 9.26788 16.8726C8.43613 16.0409 7.93708 14.9002 7.93708 13.6407C7.93708 12.3812 8.45989 11.2405 9.26788 10.4087C10.0996 9.57699 11.2403 9.07795 12.4998 9.07795C13.7593 9.07795 14.9 9.60076 15.7318 10.4087C16.5635 11.2405 17.0626 12.3812 17.0626 13.6407C17.0863 14.9002 16.5635 16.0409 15.7318 16.8726Z" fill="white"/>
<path d="M20.9599 10.0761C21.603 10.0761 22.1243 9.55471 22.1243 8.9116C22.1243 8.2685 21.603 7.74715 20.9599 7.74715C20.3167 7.74715 19.7954 8.2685 19.7954 8.9116C19.7954 9.55471 20.3167 10.0761 20.9599 10.0761Z" fill="white"/>
</g>
<defs>
<clipPath id="clip0">
<rect width="25" height="25" fill="white"/>
</clipPath>
</defs>
</svg>
